<svg xmlns="http://www.w3.org/2000/svg" width="512" height="512" viewBox="0 0 512 512">
  <defs>
    <radialGradient id="background" cx="50%" cy="48%" r="70%">
      <stop offset="0" stop-color="#111942"/>
      <stop offset="1" stop-color="#050713"/>
    </radialGradient>
    <linearGradient id="input" x1="88" y1="0" x2="286" y2="0" gradientUnits="userSpaceOnUse">
      <stop stop-color="#25D9F5"/>
      <stop offset="1" stop-color="#6D5EF8"/>
    </linearGradient>
    <linearGradient id="upper" x1="286" y1="259" x2="400" y2="146" gradientUnits="userSpaceOnUse">
      <stop stop-color="#765CF6"/>
      <stop offset="1" stop-color="#25D9F5"/>
    </linearGradient>
    <linearGradient id="lower" x1="286" y1="259" x2="400" y2="372" gradientUnits="userSpaceOnUse">
      <stop stop-color="#765CF6"/>
      <stop offset="1" stop-color="#F22E9B"/>
    </linearGradient>
  </defs>
  <rect x="35" y="35" width="442" height="442" rx="105" fill="url(#background)"/>
  <path d="M156 259H218" fill="none" stroke="url(#input)" stroke-width="9"/>
  <path d="M286 252C332 248 316 146 360 146" fill="none" stroke="url(#upper)" stroke-width="9"/>
  <path d="M286 266C332 270 316 372 360 372" fill="none" stroke="url(#lower)" stroke-width="9"/>
  <rect x="88" y="225" width="68" height="68" rx="17" fill="#091025" stroke="#25D9F5" stroke-width="10"/>
  <rect x="218" y="225" width="68" height="68" rx="17" fill="#0B1028" stroke="#765CF6" stroke-width="10"/>
  <rect x="360" y="112" width="68" height="68" rx="17" fill="#081126" stroke="#25D9F5" stroke-width="10"/>
  <rect x="360" y="338" width="68" height="68" rx="17" fill="#100B27" stroke="#F22E9B" stroke-width="10"/>
</svg>
